<?xml version="1.0" standalone="no"?>
<!DOCTYPE svg PUBLIC "-//W3C//DTD SVG 20010904//EN"
 "http://www.w3.org/TR/2001/REC-SVG-20010904/DTD/svg10.dtd">
<svg version="1.0" xmlns="http://www.w3.org/2000/svg"
 width="760.000000pt" height="600.000000pt" viewBox="0 0 760.000000 600.000000"
 preserveAspectRatio="xMidYMid meet">

<g transform="translate(0.000000,600.000000) scale(0.100000,-0.100000)"
fill="#000000" stroke="none">
<path d="M2333 5932 c-34 -37 -84 -92 -113 -122 -57 -61 -138 -214 -146 -277
-3 -20 -9 -42 -13 -47 -11 -13 -20 -78 -25 -171 -4 -69 -19 -165 -37 -238 -6
-20 -7 -42 -3 -48 7 -12 -15 -139 -27 -155 -4 -5 -6 -20 -2 -32 3 -14 1 -22
-7 -22 -7 0 -10 -7 -6 -15 3 -8 3 -15 0 -15 -2 0 -9 10 -14 23 -6 16 -9 17 -9
5 -1 -9 6 -24 16 -33 10 -10 12 -19 6 -23 -14 -10 -24 -42 -13 -42 12 0 11
-118 -1 -126 -5 -3 -9 -16 -9 -29 0 -13 -7 -31 -16 -39 -9 -10 -13 -24 -9 -36
4 -13 -1 -33 -14 -54 -11 -18 -17 -37 -13 -42 4 -5 3 -6 -2 -1 -5 4 -19 -10
-31 -30 -12 -21 -18 -40 -14 -43 3 -3 9 -14 13 -26 5 -17 -3 -28 -40 -57 -26
-20 -50 -34 -55 -31 -4 2 -13 -5 -20 -17 -9 -17 -13 -19 -20 -8 -7 11 -9 10
-9 -3 0 -12 -8 -18 -22 -18 -12 0 -19 -2 -16 -5 3 -3 -8 -20 -24 -37 -33 -36
-113 -166 -106 -173 3 -3 17 16 32 42 49 87 86 142 86 127 0 -4 12 4 28 18 39
36 123 91 139 91 7 0 11 3 8 5 -8 8 16 32 26 26 5 -3 -1 -20 -13 -37 -13 -18
-23 -35 -23 -39 0 -3 -38 -44 -85 -90 -47 -46 -81 -80 -75 -76 5 5 14 8 19 8
14 0 -7 -20 -36 -34 -14 -7 -24 -22 -26 -38 -3 -24 1 -28 40 -39 24 -6 53 -12
65 -13 23 -1 21 -16 -3 -16 -8 0 -14 -4 -14 -10 0 -15 37 -12 54 5 8 8 18 15
22 15 11 0 -19 -32 -37 -39 -32 -12 -139 -114 -139 -132 0 -25 24 -15 40 17
10 18 16 21 23 12 6 -9 7 -8 3 4 -3 11 2 21 14 28 28 15 31 13 20 -16 -15 -38
-12 -41 13 -16 12 12 54 48 92 78 39 31 74 63 79 71 6 11 10 12 15 4 9 -14 94
68 87 84 -2 7 2 12 10 12 12 0 12 -4 -1 -24 -9 -13 -13 -27 -11 -32 7 -11 -19
-33 -27 -24 -4 3 -7 -10 -7 -30 0 -20 -4 -37 -10 -37 -5 0 -10 -7 -10 -16 0
-8 -3 -14 -7 -12 -5 2 -20 -8 -34 -22 l-26 -25 40 -1 c22 0 35 2 29 4 -7 2
-12 8 -12 12 0 11 79 10 86 -1 3 -5 14 -9 25 -9 10 0 33 -13 50 -30 29 -27 31
-34 27 -80 -3 -30 -21 -80 -46 -131 -35 -69 -38 -80 -22 -76 17 4 18 2 9 -15
-6 -11 -8 -22 -6 -25 11 -10 88 19 146 57 34 22 65 40 69 40 4 0 15 13 26 28
37 56 102 84 233 101 37 5 77 13 87 17 13 5 17 4 13 -3 -4 -6 -22 -14 -41 -17
-19 -4 -36 -10 -38 -14 -5 -12 -137 -97 -190 -123 -47 -23 -48 -24 -48 -72 0
-26 5 -68 11 -93 10 -39 15 -44 39 -44 19 0 33 8 44 25 11 17 26 25 46 25 16
0 33 6 37 13 18 27 76 43 133 36 30 -4 58 -5 62 -3 4 3 16 0 27 -5 14 -8 21
-8 24 2 3 6 10 -3 17 -20 18 -48 28 -40 22 17 -4 46 -3 50 17 50 15 0 21 -6
21 -21 0 -21 66 -96 81 -92 12 4 32 -26 33 -50 1 -19 7 -22 51 -23 28 -1 55
-3 60 -4 6 -1 34 -2 63 -1 39 1 57 6 69 21 10 11 29 20 43 20 18 0 37 13 62
43 63 73 78 95 78 110 0 9 13 28 29 43 17 15 28 31 25 36 -3 4 0 8 6 8 6 0 15
11 22 25 6 13 14 22 18 20 4 -3 15 6 23 19 9 13 27 26 42 28 20 4 26 1 31 -18
4 -15 14 -24 25 -24 10 0 27 -8 37 -18 16 -16 17 -22 5 -37 -17 -24 -17 -35 1
-35 15 0 106 167 106 197 1 13 12 5 41 -29 23 -27 46 -48 52 -48 6 0 -1 12
-14 28 -43 46 -81 134 -77 177 2 24 -2 40 -10 43 -6 2 -12 10 -12 18 0 9 -4
12 -10 9 -14 -8 -13 105 1 125 8 12 9 10 4 -7 -3 -12 -1 -24 5 -28 5 -3 11 0
11 7 1 7 5 0 9 -17 6 -24 8 -26 9 -7 0 12 5 22 10 22 5 0 7 -9 4 -20 -3 -11
-2 -27 1 -36 5 -13 9 -14 21 -4 12 10 15 10 15 -1 1 -9 9 -4 22 11 13 16 19
19 15 8 -5 -13 0 -19 21 -25 15 -3 33 -15 40 -25 7 -10 19 -18 27 -18 17 0 93
-38 100 -50 3 -5 15 -6 27 -2 14 3 19 2 14 -6 -4 -7 -1 -12 9 -12 8 0 20 10
25 23 6 16 9 17 9 5 1 -15 5 -15 33 -6 24 8 33 8 36 0 2 -6 19 -14 38 -18 18
-3 31 -10 28 -15 -3 -5 2 -6 10 -3 8 3 38 -6 68 -20 48 -22 231 -65 348 -81
25 -3 57 -8 71 -11 20 -4 28 1 39 23 20 43 20 73 0 93 -17 17 -17 20 -2 54 11
24 19 32 24 23 5 -8 8 -5 8 10 0 27 -44 65 -98 82 -23 8 -39 17 -37 22 3 4
-25 11 -62 14 -56 6 -179 43 -149 44 4 1 -2 10 -15 22 -16 13 -9 11 18 -6 23
-15 58 -30 77 -35 38 -8 37 -9 41 41 0 9 6 23 13 31 9 11 9 19 -1 32 -12 16
-15 17 -29 3 -13 -14 -18 -14 -46 0 -17 8 -43 27 -57 41 -16 16 -37 25 -56 25
-18 0 -25 3 -17 8 8 5 2 10 -16 15 -18 4 -33 18 -42 38 -8 18 -13 24 -14 14 0
-36 -28 -12 -49 42 -16 43 -30 121 -20 115 4 -3 5 14 3 38 -10 116 -4 203 16
255 11 29 20 65 20 81 0 33 -28 151 -40 166 -4 6 -13 28 -20 50 -19 59 -57
131 -82 155 -12 11 -18 20 -14 20 4 0 -2 12 -13 26 -12 15 -21 32 -21 40 0 7
-4 14 -8 16 -4 2 -20 30 -35 63 -15 33 -34 73 -42 88 -8 16 -15 33 -15 39 0 9
-72 155 -112 228 -36 66 -78 123 -155 212 l-85 98 -612 0 -613 0 -60 -68z
m867 -37 c0 -29 4 -45 13 -45 8 0 8 -3 2 -8 -6 -4 -11 -25 -12 -47 0 -22 -6
-53 -12 -68 -6 -16 -11 -32 -11 -36 0 -5 -7 -14 -15 -21 -8 -7 -13 -16 -10
-20 3 -5 1 -20 -4 -33 -11 -29 -2 -40 42 -51 15 -3 27 -11 27 -16 0 -6 7 -10
15 -10 22 0 81 -33 135 -75 25 -20 53 -38 63 -41 9 -4 17 -15 17 -25 0 -10 23
-36 52 -59 101 -81 128 -138 152 -324 12 -95 12 -96 -9 -90 -11 4 -23 11 -26
16 -16 24 -259 -23 -300 -58 -9 -8 -18 -11 -22 -8 -3 3 -10 -4 -17 -15 -6 -12
-15 -19 -19 -16 -5 2 -21 -7 -36 -22 -25 -26 -26 -31 -20 -88 4 -33 9 -62 11
-64 2 -2 15 1 29 7 22 10 25 9 25 -9 0 -16 4 -18 18 -10 9 5 44 12 77 16 52 6
58 5 43 -6 -13 -11 -15 -18 -7 -29 8 -11 12 -12 16 -2 7 18 33 15 40 -5 6 -15
7 -15 13 2 5 15 19 19 84 21 49 2 85 8 95 17 26 23 45 32 37 18 -5 -7 0 -21
10 -32 15 -16 17 -41 18 -167 1 -144 0 -148 -27 -194 -16 -26 -42 -54 -59 -63
-28 -14 -33 -13 -62 4 -17 10 -42 22 -55 26 -13 4 -45 23 -71 41 -26 19 -63
41 -83 49 -34 14 -36 14 -30 -2 3 -10 16 -29 28 -43 12 -14 30 -38 38 -55 9
-16 22 -40 28 -53 27 -50 -31 -77 -191 -88 -161 -12 -398 2 -451 26 -31 14
-34 45 -9 81 11 15 20 31 20 36 0 5 19 28 42 51 22 23 39 45 35 48 -11 11 -45
-7 -78 -41 -19 -19 -40 -35 -46 -35 -7 0 -13 -4 -13 -10 0 -5 -7 -10 -15 -10
-8 0 -15 -3 -15 -7 0 -11 -50 -33 -73 -33 -10 0 -15 -5 -12 -11 4 -6 -2 -13
-14 -16 -17 -4 -19 -8 -10 -19 6 -8 22 -14 34 -14 16 0 26 -9 35 -30 9 -22 21
-31 46 -36 19 -3 51 -20 71 -36 21 -16 71 -46 113 -66 74 -36 77 -37 195 -37
127 0 145 5 297 85 20 11 50 20 66 20 16 0 35 7 42 15 7 8 16 13 20 10 4 -3
10 2 13 10 7 17 66 49 75 40 3 -3 0 -16 -8 -28 -8 -12 -21 -36 -30 -52 -8 -17
-27 -46 -42 -65 -14 -19 -31 -46 -38 -58 -11 -22 -10 -23 11 -17 l22 7 -21
-22 c-11 -12 -26 -36 -33 -54 -7 -17 -16 -33 -19 -36 -3 -3 -17 -21 -30 -40
-51 -75 -150 -177 -197 -202 -67 -37 -135 -44 -219 -24 -100 24 -138 48 -241
149 -73 72 -91 95 -87 112 3 13 -1 27 -12 36 -16 13 -17 12 -10 -16 l7 -30
-35 39 c-36 40 -44 56 -27 56 9 0 25 -30 23 -42 -1 -5 3 -8 9 -8 7 0 9 10 5
28 -4 15 -7 33 -8 40 -2 18 -35 15 -48 -5 -11 -17 -11 -17 -6 1 4 12 2 17 -7
13 -13 -5 -56 49 -61 75 -1 7 -10 27 -19 43 -16 27 -17 27 -11 5 l6 -25 -17
24 c-13 17 -15 25 -6 30 9 6 8 11 -3 21 -9 7 -14 16 -11 20 2 4 -5 31 -16 60
-18 48 -20 79 -22 289 -1 130 2 243 5 251 3 8 9 25 13 38 11 33 76 32 99 -3 9
-14 27 -27 41 -31 14 -3 25 -10 25 -15 0 -5 18 -9 40 -9 22 0 40 4 40 9 0 5 9
11 21 14 18 5 20 2 14 -24 -7 -30 -7 -30 14 -13 15 14 17 20 8 26 -7 5 14 6
46 2 50 -5 60 -4 73 12 14 18 15 18 9 -3 -5 -19 -2 -23 17 -23 13 0 36 -7 52
-15 37 -20 37 -19 30 11 -6 23 -4 25 12 16 51 -26 75 -35 80 -29 11 11 13 112
2 140 -6 15 -17 27 -24 27 -8 0 -14 5 -14 10 0 17 -39 50 -58 50 -10 0 -22 4
-28 9 -5 5 -30 12 -56 14 -25 3 -50 7 -55 10 -5 3 -27 8 -48 11 -22 3 -65 10
-95 16 -57 10 -110 5 -110 -11 0 -11 -11 -11 -28 -1 -9 6 -4 25 23 78 19 38
35 62 35 54 2 -19 22 27 27 60 8 50 43 139 72 181 73 109 141 153 253 164 95
9 115 15 97 26 -10 6 -5 9 19 9 22 0 32 5 32 15 0 9 10 15 23 16 12 0 16 3 10
6 -7 2 -13 12 -13 22 0 9 -5 22 -12 29 -9 9 -9 12 1 12 7 0 11 6 8 14 -3 7 0
19 6 25 6 6 7 11 2 11 -5 0 1 7 13 16 12 8 22 24 22 35 0 10 5 19 11 19 6 0 8
7 5 16 -3 8 -2 13 3 10 5 -3 11 12 13 34 2 22 1 40 -3 40 -4 0 -10 7 -13 16
-4 9 -2 13 5 8 8 -5 10 5 7 29 -4 33 2 44 25 46 4 1 7 -19 7 -44z m-490 -1041
c0 -13 -58 -34 -96 -34 -31 0 -26 34 6 40 48 10 90 7 90 -6z m873 -5 c9 0 15
-4 12 -10 -4 -5 1 -9 9 -9 23 0 46 -29 46 -57 0 -25 -1 -25 -18 -10 -10 10
-24 17 -30 17 -7 0 -28 9 -48 19 -32 17 -34 20 -17 30 15 8 14 10 -10 8 -15
-1 -32 -9 -37 -17 -5 -8 -12 -11 -16 -7 -14 14 36 45 64 41 15 -3 35 -5 45 -5z
m-803 -19 c0 -5 -4 -10 -9 -10 -6 0 -13 5 -16 10 -3 6 1 10 9 10 9 0 16 -4 16
-10z m680 -154 c0 -2 -7 -6 -15 -10 -8 -3 -15 -1 -15 4 0 6 7 10 15 10 8 0 15
-2 15 -4z m-1302 -313 c-6 -21 -11 -78 -11 -128 0 -108 19 -162 71 -205 27
-22 32 -30 19 -30 -28 0 -74 52 -89 101 -22 76 -14 299 12 299 4 0 4 -17 -2
-37z m-246 -10 c-6 -10 -22 -29 -36 -42 l-26 -24 0 22 c0 12 5 31 11 42 8 16
13 18 25 9 11 -10 15 -9 20 4 4 9 9 15 11 12 3 -2 0 -13 -5 -23z m2358 -156
c0 -7 9 -29 20 -50 24 -44 26 -60 5 -30 -20 29 -47 106 -35 98 6 -3 10 -12 10
-18z m-2216 -49 c-3 -25 -22 -66 -43 -97 -20 -30 -36 -57 -36 -60 0 -13 -58
-81 -69 -81 -6 0 -3 7 6 14 10 7 15 16 11 19 -3 4 -23 -7 -44 -24 -22 -17 -39
-26 -39 -21 0 6 12 19 27 30 32 23 26 40 -7 22 -18 -10 -21 -9 -18 2 2 7 22
21 44 32 40 19 80 58 90 89 3 9 10 17 15 17 5 0 9 10 10 23 1 21 1 21 8 -3 7
-23 9 -21 27 28 10 28 20 52 21 52 2 0 0 -19 -3 -42z m-37 0 c-3 -8 -6 -5 -6
6 -1 11 2 17 5 13 3 -3 4 -12 1 -19z m2030 7 c9 -25 -4 -29 -17 -6 -7 15 -7
21 0 21 6 0 13 -7 17 -15z m60 -27 c-3 -8 -6 -5 -6 6 -1 11 2 17 5 13 3 -3 4
-12 1 -19z m-802 -62 c-8 -12 -20 -31 -25 -43 -5 -13 -18 -23 -28 -23 -10 0
-23 -5 -29 -11 -21 -21 -205 -24 -262 -5 -27 9 -57 16 -65 16 -17 0 -36 29
-36 55 0 23 28 30 49 11 13 -12 20 -13 29 -4 9 9 16 8 29 -5 13 -11 23 -13 33
-7 16 10 59 3 74 -11 5 -4 18 -3 29 2 10 6 32 9 48 7 19 -3 34 1 46 14 11 12
20 15 28 8 9 -7 16 -6 24 4 7 8 26 14 42 14 28 -1 29 -2 14 -22z m-461 -1 c-4
-8 -10 -12 -15 -9 -11 6 -2 24 11 24 5 0 7 -7 4 -15z m1480 -21 c3 -8 2 -12
-4 -9 -6 3 -10 10 -10 16 0 14 7 11 14 -7z m-2574 -55 c0 -5 5 -7 10 -4 6 3
10 3 10 -2 0 -15 -15 -30 -40 -43 -21 -10 -23 -10 -12 1 6 7 12 23 12 36 0 13
5 23 10 23 6 0 10 -5 10 -11z m2621 -16 c13 -16 12 -17 -3 -4 -17 13 -22 21
-14 21 2 0 10 -8 17 -17z m-156 -55 c6 -5 6 -8 0 -8 -12 0 -55 49 -55 63 0 5
10 -3 22 -19 12 -16 27 -32 33 -36z m-658 30 c-3 -8 -6 -5 -6 6 -1 11 2 17 5
13 3 -3 4 -12 1 -19z m932 -45 c2 -2 2 -5 -1 -8 -7 -7 -58 34 -58 47 0 7 12 1
28 -13 15 -13 29 -25 31 -26z m-2829 27 c0 -5 -5 -10 -11 -10 -5 0 -7 5 -4 10
3 6 8 10 11 10 2 0 4 -4 4 -10z m2609 -43 c13 5 14 3 3 -8 -10 -11 -15 -10
-27 4 -8 9 -10 13 -4 8 6 -5 19 -7 28 -4z m-2447 -19 c-7 -7 -12 -8 -12 -2 0
14 12 26 19 19 2 -3 -1 -11 -7 -17z m2718 12 c18 -12 2 -12 -25 0 -13 6 -15 9
-5 9 8 0 22 -4 30 -9z m198 -10 c1 -9 -5 -24 -13 -35 -9 -11 -14 -15 -11 -8 4
6 -7 20 -24 29 -40 24 -38 36 7 32 24 -2 39 -9 41 -18z m-658 -10 c0 -5 -2
-10 -4 -10 -3 0 -8 5 -11 10 -3 6 -1 10 4 10 6 0 11 -4 11 -10z m507 4 c-3 -3
-12 -4 -19 -1 -8 3 -5 6 6 6 11 1 17 -2 13 -5z m-222 -14 c18 -8 17 -9 -7 -9
-16 -1 -28 4 -28 9 0 12 8 12 35 0z m-2586 -21 c-16 -10 -23 -4 -14 10 3 6 11
8 17 5 6 -4 5 -9 -3 -15z m2644 4 c-7 -2 -19 -2 -25 0 -7 3 -2 5 12 5 14 0 19
-2 13 -5z m-2691 -25 c-7 -7 -12 -8 -12 -2 0 14 12 26 19 19 2 -3 -1 -11 -7
-17z m545 -90 c-3 -8 -6 -5 -6 6 -1 11 2 17 5 13 3 -3 4 -12 1 -19z m10 -50
c-3 -8 -6 -5 -6 6 -1 11 2 17 5 13 3 -3 4 -12 1 -19z m23 -61 c0 -5 -4 -5 -10
-2 -5 3 -10 14 -10 23 0 15 2 15 10 2 5 -8 10 -19 10 -23z"/>
<path d="M3098 5513 c7 -3 16 -2 19 1 4 3 -2 6 -13 5 -11 0 -14 -3 -6 -6z"/>
<path d="M2740 4680 c0 -5 7 -7 15 -4 8 4 22 1 30 -6 12 -10 15 -9 15 4 0 11
-9 16 -30 16 -16 0 -30 -4 -30 -10z"/>
<path d="M3394 4612 c-11 -1 -30 -5 -44 -9 l-25 -6 25 -7 c53 -17 180 -9 180
10 0 8 -103 17 -136 12z"/>
<path d="M2910 4283 c0 -37 39 -88 74 -97 14 -3 47 -20 74 -37 47 -29 51 -30
83 -16 19 8 44 23 56 33 12 11 38 32 58 47 19 16 33 32 30 37 -9 15 -67 0
-102 -26 -19 -15 -41 -22 -55 -20 -13 3 -27 5 -32 5 -4 1 -5 8 -2 17 5 12 2
15 -9 10 -9 -3 -13 -2 -10 4 3 5 -4 14 -16 21 -20 10 -21 9 -15 -7 6 -18 5
-18 -8 -1 -9 11 -27 17 -54 17 -31 0 -45 5 -56 22 -16 22 -16 22 -16 -9z"/>
<path d="M2515 3980 c15 -28 38 -50 52 -50 18 0 17 25 -2 40 -13 11 -14 10 -9
-6 6 -16 2 -15 -21 6 -16 14 -25 18 -20 10z"/>
<path d="M2920 3885 c7 -8 9 -15 5 -15 -17 0 23 -35 60 -51 64 -30 210 -21
190 11 -3 5 3 14 12 19 14 8 -2 11 -62 9 -84 -1 -195 17 -195 33 0 5 -5 9 -11
9 -8 0 -8 -5 1 -15z"/>
<path d="M950 5614 c-36 -42 -50 -73 -50 -114 0 -41 16 -46 44 -13 13 15 33
39 45 52 14 17 21 38 21 68 0 54 -16 56 -60 7z"/>
<path d="M991 5461 c-30 -16 -60 -52 -61 -73 -1 -23 41 -2 73 36 51 62 49 70
-12 37z"/>
<path d="M70 5395 c7 -8 19 -15 26 -15 8 0 14 -4 14 -9 0 -13 43 -22 54 -11 7
7 3 10 -10 10 -10 0 -32 9 -49 20 -36 24 -52 26 -35 5z"/>
<path d="M849 5377 c-14 -17 -31 -42 -38 -54 -15 -29 -36 -29 -55 -1 -12 16
-16 18 -16 7 0 -9 -8 -23 -19 -33 -16 -15 -19 -15 -31 -1 -16 19 -30 19 -30 0
0 -8 4 -15 10 -15 14 0 60 -95 60 -124 0 -36 -29 -42 -54 -9 -59 77 -83 98
-98 85 -8 -7 -36 -15 -61 -18 -44 -6 -47 -5 -56 20 -14 36 -34 34 -26 -3 8
-38 -17 -66 -46 -51 -21 12 -34 49 -25 77 7 22 -17 39 -74 52 -48 11 -129 -15
-171 -55 -14 -13 -33 -24 -42 -24 -9 0 -21 -9 -26 -19 -16 -30 9 -44 63 -36
43 7 46 6 47 -16 1 -20 2 -21 6 -4 2 11 6 30 9 43 2 12 10 22 17 22 6 0 23 9
37 20 14 11 39 20 55 20 25 0 33 -6 42 -29 15 -42 -13 -71 -67 -71 -22 0 -40
-3 -40 -7 0 -12 76 -80 98 -87 31 -10 27 -31 -7 -46 -32 -13 -71 -6 -71 13 0
21 -42 97 -53 96 -8 0 -8 -2 0 -6 10 -3 9 -8 -2 -20 -20 -19 -19 -29 6 -52 26
-24 20 -46 -17 -55 -34 -9 -49 5 -35 33 9 16 8 22 -8 30 -10 6 -22 7 -26 3 -5
-4 -5 -2 -1 5 3 6 -3 30 -15 52 -18 36 -25 41 -55 41 l-34 0 0 -468 0 -468 38
4 c79 8 75 -58 -4 -72 l-34 -7 0 -234 c0 -216 5 -258 25 -225 3 6 26 10 51 10
37 0 44 3 44 19 0 11 5 23 10 26 6 4 22 24 36 46 19 31 30 39 53 39 38 0 61 9
61 24 0 17 -67 75 -96 82 -33 9 -47 29 -40 60 7 25 9 26 57 20 93 -13 115 -30
148 -118 6 -16 15 -28 22 -28 18 0 -1 62 -32 100 -16 19 -29 47 -29 62 0 18
-9 33 -30 48 -17 12 -30 28 -30 37 0 20 57 73 79 73 28 0 52 -39 63 -104 6
-33 18 -68 26 -76 12 -13 14 -9 9 35 -6 66 -41 157 -73 189 -21 20 -25 31 -19
56 l7 32 25 -23 c15 -15 27 -20 31 -13 11 15 90 54 111 54 21 0 33 -21 23 -37
-4 -5 -20 -14 -37 -20 -46 -15 -37 -36 20 -50 28 -7 60 -18 71 -24 12 -6 29
-9 37 -7 17 3 13 13 -49 141 -8 16 -14 33 -14 38 0 25 84 127 126 153 44 28
49 29 92 17 24 -6 47 -10 49 -7 2 2 -1 23 -8 46 -10 32 -10 46 -1 61 7 10 12
25 12 33 0 20 32 28 74 21 61 -12 63 6 5 35 -30 15 -66 30 -80 33 -17 4 -31
18 -39 37 -11 26 -10 33 5 50 14 15 21 17 32 9 7 -7 16 -9 19 -6 13 13 -6 37
-40 51 -32 13 -56 41 -56 64 0 14 87 83 108 86 9 2 39 -3 66 -10 28 -7 52 -11
54 -9 3 2 -3 15 -11 29 -12 18 -29 27 -62 31 -25 4 -45 9 -45 11 0 3 6 19 14
37 17 41 62 86 104 104 39 16 38 34 -2 44 -41 11 -79 56 -72 85 9 36 -23 31
-55 -9z m-3 -142 c8 -20 -13 -45 -32 -38 -14 5 -19 34 -7 46 11 12 33 7 39 -8z
m-196 -95 c10 -6 16 -29 17 -67 2 -32 3 -62 4 -68 2 -28 -12 -146 -21 -170 -9
-22 -15 -26 -35 -21 -28 7 -30 4 -14 -26 15 -27 -3 -68 -30 -68 -11 0 -30 13
-42 29 -12 16 -30 31 -40 34 -10 3 -26 21 -36 42 -21 44 -9 70 32 70 23 0 30
-6 40 -35 7 -22 19 -36 32 -38 17 -3 21 4 27 46 3 27 4 57 0 66 -3 9 -1 22 4
29 8 10 4 20 -17 39 -33 32 -56 81 -47 103 6 18 61 44 91 44 11 1 27 -4 35 -9z
m-204 -125 c-3 -9 -12 -15 -19 -12 -15 5 -17 29 -2 39 14 10 29 -8 21 -27z
m-166 -340 c23 -27 -16 -57 -48 -36 -12 7 -12 12 -1 30 16 25 32 27 49 6z
m-90 -29 c0 -2 -7 -7 -16 -10 -8 -3 -12 -2 -9 4 6 10 25 14 25 6z m408 -18 c4
-23 -36 -45 -44 -23 -9 23 4 47 23 43 10 -2 19 -11 21 -20z m-468 -3 c-7 -9
-15 -13 -18 -11 -2 3 -13 1 -24 -5 -25 -13 -34 -5 -17 15 8 8 27 15 43 16 24
0 27 -2 16 -15z m104 -362 c4 -9 2 -19 -3 -23 -6 -3 -18 -24 -27 -45 -19 -46
-29 -54 -55 -48 -27 7 -24 29 12 85 32 49 61 62 73 31z"/>
<path d="M6657 5403 c-5 -7 -4 -13 1 -13 6 0 13 -11 16 -25 8 -33 24 -32 33 3
l7 27 7 -30 7 -30 1 32 c1 40 -16 53 -25 18 -8 -32 -18 -32 -30 3 -7 18 -12
23 -17 15z"/>
<path d="M6743 5375 c0 -22 2 -30 4 -17 2 12 2 30 0 40 -3 9 -5 -1 -4 -23z"/>
<path d="M6764 5399 c-4 -7 3 -19 16 -29 23 -18 12 -39 -12 -24 -10 6 -10 4 0
-8 18 -23 12 -103 -8 -103 -10 0 -17 14 -20 45 -3 25 -9 45 -15 45 -15 0 -18
-84 -4 -101 17 -21 66 -18 79 5 14 27 13 84 -2 99 -9 9 -9 12 0 12 20 0 13 28
-8 35 -26 8 -26 29 0 22 11 -3 18 -1 14 4 -7 13 -31 11 -40 -2z"/>
<path d="M6844 5398 c-4 -7 2 -18 14 -26 29 -19 28 -35 0 -27 -18 6 -20 5 -11
-5 6 -7 19 -10 27 -7 23 9 20 38 -4 44 -11 3 -20 10 -20 15 0 6 9 8 20 5 11
-3 18 -1 14 4 -8 13 -31 11 -40 -3z"/>
<path d="M6901 5378 c-1 -24 4 -38 12 -38 6 0 4 -5 -5 -11 -10 -6 -18 -22 -18
-37 l0 -27 -20 30 c-30 46 -45 38 -48 -27 -2 -47 0 -58 13 -58 10 0 15 10 15
33 l0 32 21 -32 c33 -51 49 -43 49 25 0 46 4 60 20 70 13 8 20 22 19 40 l-1
27 -7 -30 c-9 -42 -34 -39 -42 5 l-6 35 -2 -37z"/>
<path d="M6971 5368 c1 -24 4 -33 6 -21 2 12 12 24 21 26 15 4 15 5 0 6 -26 2
-22 19 5 24 19 4 18 4 -5 6 -27 1 -28 -1 -27 -41z"/>
<path d="M7030 5374 c0 -33 -5 -45 -25 -58 -28 -18 -35 -72 -13 -94 16 -16 63
-15 77 2 16 19 -4 32 -24 16 -20 -17 -35 -4 -35 32 0 29 1 30 35 24 39 -8 48
7 15 24 -14 7 -20 21 -20 43 l1 32 15 -27 c21 -39 34 -35 33 10 -2 32 -3 33
-6 8 l-5 -29 -23 29 -24 29 -1 -41z"/>
<path d="M7104 5396 c-11 -29 0 -51 26 -51 21 0 25 5 25 30 0 24 -5 31 -23 33
-13 2 -24 -3 -28 -12z m46 -21 c0 -18 -5 -25 -20 -25 -15 0 -20 7 -20 25 0 18
5 25 20 25 15 0 20 -7 20 -25z"/>
<path d="M7175 5400 c-8 -14 3 -30 21 -30 8 0 14 -5 14 -11 0 -6 -9 -9 -20 -6
-11 3 -20 1 -20 -4 0 -5 4 -9 8 -9 4 0 6 -29 4 -65 -4 -56 -2 -65 13 -65 14 0
16 9 13 65 -1 36 0 65 5 65 16 0 6 28 -15 44 l-23 17 23 -5 c12 -2 22 0 22 5
0 12 -37 11 -45 -1z"/>
<path d="M6652 5360 c0 -14 2 -19 5 -12 2 6 2 18 0 25 -3 6 -5 1 -5 -13z"/>
<path d="M6998 5333 c7 -3 16 -2 19 1 4 3 -2 6 -13 5 -11 0 -14 -3 -6 -6z"/>
<path d="M6583 5313 c-3 -10 -12 -33 -19 -52 -18 -43 -17 -51 1 -51 8 0 15 5
15 10 0 6 9 10 19 10 11 0 23 -4 26 -10 3 -5 12 -10 20 -10 11 0 10 12 -7 60
-20 60 -42 78 -55 43z m23 -60 c-11 -11 -19 6 -11 24 8 17 8 17 12 0 3 -10 2
-21 -1 -24z"/>
<path d="M7096 5323 c-3 -3 -6 -30 -6 -60 l0 -53 40 0 c22 0 40 5 40 10 0 6
-11 10 -25 10 -23 0 -25 4 -25 44 0 43 -10 63 -24 49z"/>
<path d="M7245 5316 c-21 -15 -25 -67 -5 -90 16 -20 64 -21 79 -2 17 20 -5 32
-26 15 -13 -11 -17 -10 -28 4 -7 10 -11 27 -8 38 5 16 11 19 34 14 22 -5 29
-3 29 8 0 27 -45 35 -75 13z"/>
<path d="M1961 4943 c-13 -45 -21 -87 -18 -95 4 -9 6 -7 6 5 1 10 10 47 22 82
11 36 19 70 17 77 -2 6 -15 -25 -27 -69z"/>
<path d="M1880 4475 c-11 -13 -10 -14 4 -9 9 3 16 10 16 15 0 13 -6 11 -20 -6z"/>
<path d="M4271 4335 c1 -19 18 -51 18 -35 0 8 -4 22 -9 30 -5 8 -9 11 -9 5z"/>
<path d="M1796 4293 c-6 -14 -5 -15 5 -6 7 7 10 15 7 18 -3 3 -9 -2 -12 -12z"/>
<path d="M3834 3878 c3 -13 3 -17 0 -10 -11 24 -20 11 -17 -25 3 -32 2 -35 -7
-15 -11 26 -26 29 -28 5 -3 -46 11 -101 31 -126 12 -14 30 -37 39 -50 16 -23
48 -33 48 -14 0 5 -7 6 -16 3 -9 -3 -12 -2 -9 4 4 6 -3 22 -14 36 -12 15 -21
32 -21 38 0 6 9 -3 19 -20 11 -18 29 -39 41 -47 14 -9 19 -20 15 -28 -5 -8 -4
-10 4 -5 6 4 53 -15 105 -42 67 -36 110 -52 152 -57 32 -4 70 -12 83 -17 14
-5 27 -5 30 0 3 5 20 9 38 10 17 0 45 8 62 16 16 9 37 16 46 16 19 0 197 81
191 87 -2 2 -21 -3 -42 -12 -75 -32 -230 -77 -284 -82 -86 -8 -212 21 -297 69
-40 23 -70 44 -68 48 5 9 -44 56 -53 52 -4 -2 -8 2 -11 9 -2 7 1 9 9 4 9 -5
11 -4 6 4 -4 6 -12 9 -17 6 -5 -4 -8 2 -7 12 4 34 -14 153 -24 153 -5 0 -7
-10 -4 -22z m4 -133 c-3 -3 -9 2 -12 12 -6 14 -5 15 5 6 7 -7 10 -15 7 -18z
m77 -65 c10 -11 16 -20 13 -20 -3 0 -13 9 -23 20 -10 11 -16 20 -13 20 3 0 13
-9 23 -20z"/>
<path d="M1905 3860 c-3 -5 -1 -10 4 -10 6 0 11 5 11 10 0 6 -2 10 -4 10 -3 0
-8 -4 -11 -10z"/>
<path d="M1793 3780 c-9 -14 -10 -21 -1 -26 7 -4 8 -3 4 5 -4 6 0 14 8 17 9 3
16 10 16 15 0 15 -15 10 -27 -11z"/>
<path d="M1845 3750 c-3 -5 -2 -10 4 -10 5 0 13 5 16 10 3 6 2 10 -4 10 -5 0
-13 -4 -16 -10z"/>
<path d="M1875 3740 c-3 -5 -15 -10 -26 -10 -10 0 -19 -4 -19 -10 0 -5 18 -10
40 -10 22 0 40 5 40 11 0 5 4 8 9 4 5 -3 12 -1 15 4 6 9 -16 21 -39 21 -8 0
-17 -4 -20 -10z"/>
<path d="M1719 3708 c-20 -22 -29 -42 -28 -63 1 -21 3 -24 6 -10 3 11 19 39
35 62 34 51 29 56 -13 11z"/>
<path d="M1805 3710 c3 -5 8 -10 11 -10 2 0 4 5 4 10 0 6 -5 10 -11 10 -5 0
-7 -4 -4 -10z"/>
<path d="M1833 3674 c-3 -8 -2 -19 3 -24 5 -5 9 1 9 16 0 28 -3 30 -12 8z"/>
<path d="M1752 3660 c-7 -11 -12 -33 -12 -50 0 -23 4 -28 16 -23 12 4 12 8 3
13 -9 6 -9 15 0 41 13 38 10 46 -7 19z"/>
<path d="M1917 3641 c3 -12 9 -18 14 -15 5 3 9 0 9 -6 0 -6 8 -19 17 -28 16
-16 16 -16 10 1 -3 9 -2 17 3 17 6 0 10 9 10 20 0 23 -31 41 -38 21 -3 -9 -7
-9 -17 -1 -11 9 -12 7 -8 -9z"/>
<path d="M1375 3610 c-3 -5 1 -10 10 -10 9 0 13 5 10 10 -3 6 -8 10 -10 10 -2
0 -7 -4 -10 -10z"/>
<path d="M1796 3612 c-4 -7 -4 -12 0 -12 3 0 -4 -9 -17 -19 -18 -15 -21 -22
-13 -31 16 -17 85 16 77 36 -3 8 -11 14 -18 14 -7 0 -15 5 -17 12 -3 9 -6 9
-12 0z"/>
<path d="M1677 3559 c4 -13 8 -18 11 -10 2 7 -1 18 -6 23 -8 8 -9 4 -5 -13z"/>
<path d="M1880 3551 c0 -6 5 -13 10 -16 6 -3 10 1 10 9 0 9 -4 16 -10 16 -5 0
-10 -4 -10 -9z"/>
<path d="M1611 3455 c-23 -67 -31 -103 -26 -122 6 -25 10 -19 41 59 18 48 35
101 36 119 6 63 -18 37 -51 -56z"/>
<path d="M1860 3516 c0 -8 5 -18 10 -21 6 -3 10 1 10 9 0 8 -4 18 -10 21 -5 3
-10 -1 -10 -9z"/>
<path d="M1 3231 c0 -161 5 -293 10 -297 12 -7 11 -54 -1 -54 -7 0 -10 -188
-10 -544 l0 -543 72 -7 c40 -4 82 -8 93 -9 29 -1 45 -27 43 -69 -1 -21 0 -39
3 -41 2 -2 29 -10 59 -18 l55 -14 3 -58 c3 -52 1 -57 -18 -57 -66 0 40 -77
156 -113 27 -8 82 -27 122 -41 41 -14 86 -26 100 -26 25 0 144 -41 202 -70 46
-22 145 -22 109 1 -27 16 0 20 36 4 21 -8 41 -13 44 -10 6 7 30 260 31 333 0
49 -5 58 -32 53 -5 0 -8 2 -8 6 0 5 -17 9 -37 11 -20 1 -42 7 -48 12 -7 5 -15
7 -18 3 -4 -3 -7 2 -7 11 0 21 -38 55 -62 56 -9 0 -18 4 -20 8 -4 12 -118 23
-118 11 0 -5 -5 -9 -12 -9 -6 0 -9 3 -5 6 3 4 -4 21 -17 38 -19 25 -23 41 -21
83 2 29 -1 55 -6 59 -14 8 -11 24 5 24 33 0 64 40 80 104 9 36 16 77 16 91 0
41 25 40 102 -4 39 -23 72 -40 74 -39 11 12 -53 60 -121 91 -46 21 -52 35 -60
132 -4 50 -11 97 -15 105 -4 8 -13 87 -19 175 -13 181 -18 208 -37 201 -19 -7
-34 25 -34 76 0 75 -50 378 -66 403 -8 13 -22 26 -31 29 -8 4 -13 13 -9 21 3
9 -6 23 -24 37 -31 23 -39 43 -18 50 23 8 -38 38 -108 54 -40 9 -147 18 -252
21 l-183 6 2 -292z m159 184 c26 -31 -13 -82 -44 -56 -16 14 -22 52 -9 64 11
12 40 8 53 -8z m287 -111 c-3 -20 -15 -54 -26 -77 -10 -23 -22 -53 -25 -67 -3
-14 -3 -19 0 -12 7 16 24 6 24 -15 0 -9 8 -34 18 -54 14 -31 22 -39 45 -39 26
0 27 -2 27 -47 0 -55 19 -113 37 -113 7 0 13 -10 13 -23 0 -13 6 -29 13 -36
10 -11 10 -14 0 -18 -7 -3 -13 -15 -13 -29 0 -17 4 -22 15 -18 11 5 15 -2 15
-27 0 -19 3 -72 6 -119 4 -65 3 -81 -6 -67 -6 9 -16 17 -23 17 -7 0 -30 14
-51 32 -30 24 -42 29 -55 21 -13 -9 -16 -26 -13 -91 2 -73 0 -82 -19 -92 -32
-18 -49 4 -49 64 -1 64 -23 171 -41 192 -9 11 -14 52 -16 126 -1 63 -7 115
-13 123 -8 10 -8 19 -1 34 18 32 13 48 -16 54 -43 8 -60 -6 -55 -47 4 -35 3
-36 -28 -36 -32 0 -33 1 -27 38 6 47 -7 72 -36 72 -18 0 -25 -9 -34 -42 -7
-26 -8 -44 -2 -46 10 -4 12 -91 3 -116 -3 -9 -12 -16 -20 -16 -11 0 -14 17
-14 69 0 38 -5 82 -11 98 -6 15 -12 48 -14 73 -2 25 -6 61 -10 82 -7 36 -7 36
40 57 26 12 60 21 74 21 30 0 81 -21 81 -33 0 -4 10 1 22 13 12 11 29 20 39
20 9 0 26 19 41 47 23 46 43 59 92 62 16 1 18 -4 13 -35z m-64 -1441 c-7 -2
-19 -2 -25 0 -7 3 -2 5 12 5 14 0 19 -2 13 -5z m255 -189 c32 -21 17 -37 -30
-31 -50 7 -73 24 -56 44 13 16 49 11 86 -13z"/>
<path d="M228 3098 c-6 -16 12 -58 24 -58 12 0 10 14 -6 45 -9 17 -16 22 -18
13z"/>
<path d="M1701 3490 c0 -8 7 -31 14 -50 l14 -35 -2 30 c0 17 -7 39 -14 50 -9
13 -13 15 -12 5z"/>
<path d="M4130 3468 c0 -5 8 -9 18 -9 74 -6 102 -3 102 10 0 3 -27 6 -60 6
-33 0 -60 -3 -60 -7z"/>
<path d="M4140 3410 c0 -11 4 -20 8 -20 4 0 8 9 8 20 0 11 -4 20 -8 20 -4 0
-8 -9 -8 -20z"/>
<path d="M4234 3421 c4 -5 0 -11 -6 -14 -10 -3 -10 -7 -1 -17 9 -9 13 -8 22 8
10 19 6 32 -11 32 -5 0 -7 -4 -4 -9z"/>
<path d="M4280 3304 c0 -33 33 -30 38 4 3 17 -2 22 -17 22 -16 0 -21 -6 -21
-26z"/>
<path d="M1554 3302 c-6 -4 -20 -34 -33 -67 -13 -33 -35 -89 -49 -124 -38 -92
-38 -92 7 -26 23 33 41 64 41 68 0 5 9 20 20 34 38 48 49 138 14 115z"/>
<path d="M4162 3240 c0 -14 2 -19 5 -12 2 6 2 18 0 25 -3 6 -5 1 -5 -13z"/>
<path d="M1588 3222 c-49 -60 -44 -72 11 -23 24 21 28 30 17 34 -8 3 -20 -2
-28 -11z"/>
<path d="M4467 3185 c-3 -16 0 -24 7 -22 14 4 21 47 8 47 -5 0 -12 -11 -15
-25z"/>
<path d="M4260 3175 c0 -17 5 -25 13 -22 6 2 12 12 12 22 0 10 -6 20 -12 23
-8 2 -13 -6 -13 -23z"/>
<path d="M4040 3175 c-10 -12 -10 -19 -2 -27 15 -15 48 14 38 31 -10 15 -21
14 -36 -4z"/>
<path d="M4579 3173 c-13 -16 -12 -17 4 -4 9 7 17 15 17 17 0 8 -8 3 -21 -13z"/>
<path d="M4104 3086 c-10 -25 0 -38 13 -17 8 13 9 22 3 26 -6 4 -13 -1 -16 -9z"/>
<path d="M5639 3029 c-38 -40 -72 -82 -75 -93 -3 -12 -16 -32 -28 -46 -17 -21
-15 -20 11 4 17 15 34 39 37 53 4 13 11 21 16 18 5 -3 17 6 26 19 24 38 109
75 189 83 79 7 66 17 -39 28 l-69 7 -68 -73z"/>
<path d="M4192 3070 c0 -14 2 -19 5 -12 2 6 2 18 0 25 -3 6 -5 1 -5 -13z"/>
<path d="M4590 3066 c0 -8 -3 -23 -7 -33 -6 -16 -5 -16 10 -4 19 15 22 37 7
46 -5 3 -10 0 -10 -9z"/>
<path d="M3761 2976 c-10 -12 -8 -13 8 -9 12 3 18 9 15 14 -7 12 -10 11 -23
-5z"/>
<path d="M4306 2981 c-4 -7 -5 -15 -2 -18 9 -9 19 4 14 18 -4 11 -6 11 -12 0z"/>
<path d="M4471 2974 c0 -11 3 -14 6 -6 3 7 2 16 -1 19 -3 4 -6 -2 -5 -13z"/>
<path d="M4566 2893 c-10 -10 -7 -35 4 -28 6 3 7 -1 4 -9 -4 -11 0 -16 10 -16
10 0 16 9 16 24 0 23 -22 41 -34 29z"/>
<path d="M4397 2883 c-12 -12 -7 -31 10 -37 9 -4 21 -2 26 3 7 7 5 12 -6 17
-9 3 -14 10 -11 15 6 10 -9 12 -19 2z"/>
<path d="M5485 2796 c-15 -36 -27 -68 -25 -72 1 -4 -2 -10 -7 -13 -13 -9 -90
-247 -97 -301 l-6 -45 142 -72 c79 -40 181 -96 228 -124 l85 -50 -50 6 c-57 7
-61 4 -122 -105 -55 -96 -75 -109 -216 -137 -30 -6 -124 31 -187 74 -22 15
-49 23 -75 23 l-40 0 -43 -132 c-73 -227 -74 -238 -93 -813 -10 -301 -9 -358
6 -500 20 -189 23 -282 12 -428 l-8 -107 542 2 543 3 18 60 c9 33 22 93 29
135 19 127 67 256 198 533 29 60 65 141 81 180 16 40 52 126 80 192 58 133 75
187 85 257 3 26 13 55 21 63 9 8 13 15 9 15 -3 0 1 12 8 28 8 15 13 42 11 60
-1 18 1 31 4 28 11 -12 52 64 52 98 0 27 3 34 15 30 12 -5 15 2 15 28 0 23 6
37 23 48 12 8 25 13 30 12 12 -3 8 26 -5 30 -6 2 -8 10 -4 17 6 9 11 9 21 1 9
-8 14 -6 19 5 3 10 -1 15 -13 15 -25 0 -34 25 -15 41 8 7 13 18 10 25 -3 8 4
20 15 27 13 10 17 20 13 32 -5 13 -4 16 4 11 8 -5 12 0 12 13 0 11 5 23 10 26
6 3 10 15 10 26 0 12 7 19 19 19 10 0 21 6 24 14 5 12 -2 13 -31 9 -20 -3 -46
-12 -57 -19 -25 -18 -35 -18 -35 1 0 8 -7 15 -15 15 -8 0 -14 -3 -14 -7 3 -19
-2 -33 -11 -33 -5 0 -10 7 -10 15 0 8 -4 15 -10 15 -5 0 -10 7 -10 15 0 15
-32 16 -46 2 -4 -4 -17 -7 -29 -7 -12 0 -25 3 -29 7 -11 11 -45 13 -51 3 -10
-16 -35 -12 -29 5 4 8 2 15 -4 15 -6 0 -12 -6 -15 -12 -3 -10 -7 -10 -18 -2
-19 15 -59 24 -59 13 0 -11 -37 -12 -44 -1 -3 5 -19 7 -35 4 -23 -3 -36 2 -57
23 -15 15 -39 28 -53 29 -14 1 -32 5 -38 9 -7 5 -13 5 -13 1 0 -3 -7 -1 -15 6
-12 10 -15 10 -15 -1 0 -7 -13 0 -29 15 -23 22 -36 27 -55 22 -21 -5 -28 -1
-41 24 -9 17 -23 30 -35 30 -10 0 -22 5 -25 10 -3 6 -28 10 -54 10 -46 0 -80
18 -64 33 3 4 -2 7 -13 7 -10 0 -48 14 -82 30 -35 17 -70 30 -78 30 -8 0 -14
5 -14 11 0 7 -9 9 -21 6 -21 -6 -57 9 -70 27 -4 5 -13 7 -21 4 -32 -13 -79 55
-79 115 0 59 9 135 16 148 4 5 8 22 10 36 1 14 8 29 15 33 6 4 11 10 11 14 -3
22 0 36 8 32 5 -3 9 6 9 19 0 14 -2 25 -3 25 -2 0 -15 -29 -30 -64z m-225
-926 c0 -5 -5 -10 -11 -10 -5 0 -7 5 -4 10 3 6 8 10 11 10 2 0 4 -4 4 -10z
m1460 -54 c0 -2 -7 -7 -16 -10 -8 -3 -12 -2 -9 4 6 10 25 14 25 6z m-8 -48
c-8 -8 -9 -4 -5 13 4 13 8 18 11 10 2 -7 -1 -18 -6 -23z m-814 -1240 c-12 -18
-30 -42 -39 -53 -9 -11 -38 -60 -63 -110 -26 -49 -56 -99 -66 -110 -9 -11 -20
-27 -24 -35 -3 -8 -4 -1 -1 15 4 17 13 35 21 41 7 6 14 17 15 25 0 8 11 32 24
54 13 22 29 50 35 63 15 35 104 141 118 142 1 0 -8 -15 -20 -32z m-216 -393
c-2 -14 -6 -25 -8 -25 -2 0 -4 11 -4 25 0 14 4 25 9 25 4 0 6 -11 3 -25z"/>
<path d="M3935 2819 c-4 -6 -5 -12 -2 -15 2 -3 7 2 10 11 7 17 1 20 -8 4z"/>
<path d="M4511 2784 c0 -11 3 -14 6 -6 3 7 2 16 -1 19 -3 4 -6 -2 -5 -13z"/>
<path d="M5130 2780 c-11 -21 -6 -40 11 -40 6 0 7 5 3 12 -5 8 -1 9 12 5 18
-7 18 -7 0 7 -10 8 -15 19 -11 25 3 6 4 11 1 11 -3 0 -10 -9 -16 -20z"/>
<path d="M4742 2738 c5 -15 28 -23 28 -10 0 5 -7 13 -16 16 -10 4 -14 1 -12
-6z"/>
<path d="M5025 2649 c-9 -28 8 -45 25 -25 13 17 7 46 -9 46 -5 0 -13 -9 -16
-21z"/>
<path d="M3695 2650 c-3 -6 1 -7 9 -4 18 7 21 14 7 14 -6 0 -13 -4 -16 -10z"/>
<path d="M4916 2595 c4 -8 10 -12 15 -9 11 6 2 24 -11 24 -5 0 -7 -7 -4 -15z"/>
<path d="M5017 2493 c-9 -9 -9 -33 1 -33 4 0 13 9 20 20 10 16 10 20 -1 20 -8
0 -17 -3 -20 -7z"/>
<path d="M4370 2475 c-7 -9 -11 -17 -9 -20 3 -2 10 5 17 15 14 24 10 26 -8 5z"/>
<path d="M4744 2478 c-8 -12 24 -40 37 -32 5 3 9 14 9 25 0 21 -34 27 -46 7z"/>
<path d="M4630 2471 c0 -5 3 -17 6 -25 5 -13 10 -14 20 -6 7 7 10 18 7 26 -6
15 -33 20 -33 5z"/>
<path d="M4840 2363 c0 -22 2 -25 10 -13 13 20 13 40 0 40 -5 0 -10 -12 -10
-27z"/>
<path d="M4370 2335 c-7 -9 -11 -17 -9 -20 3 -2 10 5 17 15 14 24 10 26 -8 5z"/>
<path d="M4399 2340 c-1 -3 -3 -15 -4 -28 -2 -22 -1 -22 13 -8 13 12 14 19 4
28 -7 7 -13 10 -13 8z"/>
<path d="M4720 2285 c0 -8 5 -15 10 -15 6 0 10 7 10 15 0 8 -4 15 -10 15 -5 0
-10 -7 -10 -15z"/>
<path d="M3885 2280 c3 -5 8 -10 11 -10 2 0 4 5 4 10 0 6 -5 10 -11 10 -5 0
-7 -4 -4 -10z"/>
<path d="M4827 2223 c-13 -12 -7 -43 8 -43 8 0 15 6 15 13 0 18 -15 38 -23 30z"/>
<path d="M1131 2185 c-7 -16 -19 -45 -27 -63 -16 -37 -49 -54 -79 -40 -19 9
-19 8 -2 -5 10 -8 19 -23 19 -34 3 -30 -32 -73 -58 -73 -13 0 -24 -4 -24 -9 0
-6 -17 -12 -37 -14 -21 -2 -13 -3 17 -2 30 1 75 8 99 15 40 12 45 11 58 -5 8
-12 16 -15 22 -9 12 14 33 173 29 224 l-3 45 -14 -30z"/>
<path d="M4621 2156 c-9 -10 -8 -16 4 -26 13 -11 19 -11 32 2 16 17 10 38 -11
38 -8 0 -19 -6 -25 -14z"/>
<path d="M4457 2154 c-4 -4 -7 -14 -7 -23 0 -11 3 -12 11 -4 6 6 10 16 7 23
-2 6 -7 8 -11 4z"/>
<path d="M995 2110 c3 -5 8 -10 11 -10 2 0 4 5 4 10 0 6 -5 10 -11 10 -5 0 -7
-4 -4 -10z"/>
<path d="M4781 2094 c0 -11 3 -14 6 -6 3 7 2 16 -1 19 -3 4 -6 -2 -5 -13z"/>
<path d="M4706 2057 c3 -10 9 -15 12 -12 3 3 0 11 -7 18 -10 9 -11 8 -5 -6z"/>
<path d="M880 1980 c0 -5 7 -10 16 -10 8 0 12 5 9 10 -3 6 -10 10 -16 10 -5 0
-9 -4 -9 -10z"/>
<path d="M7564 1972 c2 -4 -4 -27 -15 -51 -10 -24 -17 -47 -14 -51 3 -5 -3
-15 -13 -22 -10 -7 -24 -28 -30 -46 -6 -18 -20 -46 -32 -61 -23 -33 -26 -51
-7 -51 17 0 39 28 57 70 8 19 20 41 27 48 7 7 13 20 13 27 0 8 6 29 14 47 36
83 39 98 15 98 -11 0 -18 -4 -15 -8z"/>
<path d="M4485 1931 c-3 -5 -1 -12 5 -16 5 -3 10 1 10 9 0 18 -6 21 -15 7z"/>
<path d="M4805 1900 c-3 -5 -1 -10 4 -10 6 0 11 5 11 10 0 6 -2 10 -4 10 -3 0
-8 -4 -11 -10z"/>
<path d="M755 1860 c32 -31 127 -50 252 -50 67 0 113 4 113 10 0 5 -12 12 -27
15 -16 3 -48 12 -73 20 -76 23 -101 26 -115 15 -9 -7 -26 -8 -56 -1 -24 6 -60
11 -79 11 -34 0 -34 0 -15 -20z"/>
<path d="M4617 1763 c-4 -3 -7 -11 -7 -17 0 -6 5 -5 12 2 6 6 9 14 7 17 -3 3
-9 2 -12 -2z"/>
<path d="M7572 1750 c-6 -11 -12 -25 -12 -32 0 -18 -52 -94 -102 -152 -24 -26
-42 -53 -40 -58 2 -6 -6 -17 -18 -25 -11 -8 -20 -20 -20 -28 0 -8 -6 -12 -14
-9 -10 4 -16 -2 -18 -18 -2 -13 -13 -27 -25 -33 -13 -5 -23 -17 -23 -27 0 -9
-11 -29 -23 -45 -13 -15 -37 -50 -53 -78 -16 -27 -34 -59 -41 -70 -7 -11 -22
-39 -35 -62 -12 -24 -26 -43 -30 -43 -4 0 -8 -8 -8 -18 0 -10 -4 -22 -9 -27
-4 -6 -26 -44 -47 -85 -21 -41 -60 -110 -86 -152 -26 -43 -48 -81 -48 -85 0
-3 -6 -14 -14 -22 -8 -9 -16 -25 -18 -36 -1 -11 -6 -22 -9 -25 -9 -7 -56 -89
-74 -127 -8 -17 -19 -34 -25 -38 -5 -3 -10 -17 -10 -30 0 -13 -4 -25 -10 -27
-23 -8 -42 -132 -38 -253 2 -66 7 -126 11 -133 6 -9 88 -12 350 -12 l342 0 25
40 c28 45 40 38 15 -9 l-16 -31 76 0 75 0 0 190 c0 120 -4 190 -10 190 -5 0
-10 -4 -10 -10 0 -5 -7 -10 -16 -10 -8 0 -22 -7 -30 -15 -17 -17 -44 -20 -44
-6 0 5 7 16 15 25 8 8 15 19 15 24 0 12 25 22 56 22 l24 0 0 680 c0 374 -3
680 -8 680 -4 0 -13 -9 -20 -20z"/>
<path d="M4527 1720 c-3 -11 -1 -23 4 -26 5 -3 9 -1 9 5 0 5 3 16 6 25 3 9 2
16 -4 16 -5 0 -12 -9 -15 -20z"/>
<path d="M4667 1706 c-4 -10 -5 -21 -2 -24 9 -9 17 6 13 25 -3 17 -4 17 -11
-1z"/>
<path d="M7427 1666 c-4 -10 -5 -21 -2 -24 9 -9 17 6 13 25 -3 17 -4 17 -11
-1z"/>
<path d="M7380 1601 c0 -11 4 -21 9 -21 18 0 21 18 6 30 -13 10 -15 9 -15 -9z"/>
<path d="M4667 1565 c-4 -8 -2 -17 3 -20 6 -4 10 3 10 14 0 25 -6 27 -13 6z"/>
<path d="M4612 1420 c0 -14 2 -19 5 -12 2 6 2 18 0 25 -3 6 -5 1 -5 -13z"/>
<path d="M0 806 l0 -513 78 -13 c68 -10 274 -51 342 -67 22 -6 23 -5 9 9 -8 9
-33 25 -55 37 -97 54 -114 66 -120 84 -3 10 -1 24 5 30 20 20 12 35 -24 47
-36 12 -46 38 -26 69 5 7 4 25 -2 42 -6 15 -8 31 -5 34 8 8 608 12 608 3 0 -3
-32 -12 -70 -19 -39 -7 -73 -16 -76 -21 -3 -4 -32 -8 -64 -8 -87 0 -89 -26 -5
-49 22 -6 51 -18 64 -27 23 -16 65 -29 138 -41 28 -4 34 -2 42 19 5 14 10 150
10 303 1 152 4 282 7 287 4 6 44 7 104 3 l98 -7 6 48 c10 88 10 151 -1 141 -3
-4 -12 -2 -18 3 -14 11 -69 -25 -60 -40 13 -21 -37 -28 -242 -35 -189 -6 -224
-5 -245 8 -18 12 -161 69 -196 78 -9 2 -8 2 -118 38 -50 17 -112 39 -137 50
l-47 20 0 -513z"/>
<path d="M1020 1260 c0 -5 5 -10 10 -10 6 0 10 5 10 10 0 6 -4 10 -10 10 -5 0
-10 -4 -10 -10z"/>
<path d="M1876 1234 c-8 -20 -8 -24 2 -24 4 0 8 9 9 20 2 24 -3 26 -11 4z"/>
<path d="M1265 1150 c-8 -13 3 -30 18 -29 9 0 9 2 0 6 -7 2 -13 9 -13 14 0 6
5 7 12 3 7 -4 8 -3 4 4 -9 15 -13 15 -21 2z"/>
<path d="M1915 1100 c3 -5 11 -10 16 -10 6 0 7 5 4 10 -3 6 -11 10 -16 10 -6
0 -7 -4 -4 -10z"/>
<path d="M1630 976 c0 -2 7 -7 16 -10 8 -3 12 -2 9 4 -6 10 -25 14 -25 6z"/>
<path d="M1220 599 c0 -41 0 -41 34 -37 19 2 32 0 30 -4 -13 -21 66 -20 191 3
39 7 87 13 107 13 21 0 33 3 27 7 -7 4 -8 12 -4 19 6 10 -5 12 -52 8 -34 -3
-91 0 -128 7 -37 7 -84 12 -106 11 -21 -1 -39 2 -39 7 0 4 -13 7 -30 7 -28 0
-30 -2 -30 -41z m358 -6 c-10 -2 -28 -2 -40 0 -13 2 -5 4 17 4 22 1 32 -1 23
-4z"/>
<path d="M2140 633 c0 -5 7 -18 15 -29 12 -16 14 -16 15 -3 0 9 -7 22 -15 29
-8 7 -15 8 -15 3z"/>
<path d="M1925 620 c-16 -4 -52 -9 -80 -10 -41 -2 -45 -3 -25 -10 l25 -8 -25
-2 -25 -2 25 -8 c17 -5 19 -8 8 -9 -29 -2 -21 -14 33 -49 27 -18 47 -37 44
-42 -4 -6 1 -13 9 -16 9 -3 16 -12 16 -20 0 -8 5 -14 10 -14 6 0 10 -17 10
-37 0 -25 3 -33 9 -24 7 11 9 11 13 0 14 -38 18 12 12 130 -5 86 -11 131 -18
130 -6 -1 -24 -5 -41 -9z"/>
<path d="M2320 610 c0 -5 5 -10 11 -10 5 0 7 5 4 10 -3 6 -8 10 -11 10 -2 0
-4 -4 -4 -10z"/>
<path d="M370 450 c0 -6 1 -10 3 -10 1 0 18 -4 36 -10 38 -11 31 0 -11 18 -17
7 -28 8 -28 2z"/>
<path d="M3780 310 c-9 -6 -10 -10 -3 -10 6 0 15 5 18 10 8 12 4 12 -15 0z"/>
<path d="M705 300 c3 -5 8 -10 11 -10 2 0 4 5 4 10 0 6 -5 10 -11 10 -5 0 -7
-4 -4 -10z"/>
<path d="M3918 268 c-10 -10 -14 -18 -9 -18 10 0 36 29 30 34 -2 1 -12 -6 -21
-16z"/>
<path d="M1167 272 c-5 -7 -6 -20 -3 -30 4 -12 -1 -26 -14 -37 -11 -10 -20
-14 -20 -9 0 5 -9 -2 -19 -15 -14 -18 -29 -24 -67 -26 -27 -1 -41 0 -31 2 12
3 17 15 17 44 0 32 -3 39 -20 39 -17 0 -20 -7 -20 -40 0 -22 -4 -40 -10 -40
-5 0 -10 19 -10 42 0 70 -8 38 -13 -53 -2 -48 -7 -91 -11 -97 -10 -16 20 -22
109 -22 51 0 96 -6 118 -15 32 -13 36 -13 31 0 -4 8 -11 15 -18 15 -6 0 -5 4
3 9 9 6 11 15 6 27 -5 11 -11 64 -14 119 -4 57 -9 95 -14 87z"/>
<path d="M4117 263 c-4 -3 -7 -11 -7 -17 0 -6 5 -5 12 2 6 6 9 14 7 17 -3 3
-9 2 -12 -2z"/>
<path d="M2815 220 c3 -5 8 -10 11 -10 2 0 4 5 4 10 0 6 -5 10 -11 10 -5 0 -7
-4 -4 -10z"/>
<path d="M4661 104 c0 -11 3 -14 6 -6 3 7 2 16 -1 19 -3 4 -6 -2 -5 -13z"/>
<path d="M18 73 c7 -3 16 -2 19 1 4 3 -2 6 -13 5 -11 0 -14 -3 -6 -6z"/>
<path d="M147 60 c3 -11 7 -20 9 -20 2 0 4 9 4 20 0 11 -4 20 -9 20 -5 0 -7
-9 -4 -20z"/>
<path d="M240 40 c0 -5 7 -7 15 -4 8 4 15 8 15 10 0 2 -7 4 -15 4 -8 0 -15 -4
-15 -10z"/>
<path d="M2020 41 c0 -33 14 -41 69 -41 l56 1 -45 15 c-25 9 -49 20 -54 25
-13 12 -26 12 -26 0z"/>
<path d="M150 10 c19 -13 30 -13 30 0 0 6 -10 10 -22 10 -19 0 -20 -2 -8 -10z"/>
</g>
</svg>
