<?xml version="1.0" standalone="no"?>
<!DOCTYPE svg PUBLIC "-//W3C//DTD SVG 20010904//EN"
 "http://www.w3.org/TR/2001/REC-SVG-20010904/DTD/svg10.dtd">
<svg version="1.0" xmlns="http://www.w3.org/2000/svg"
 width="476.000000pt" height="135.000000pt" viewBox="0 0 476.000000 135.000000"
 preserveAspectRatio="xMidYMid meet">

<g transform="translate(0.000000,135.000000) scale(0.100000,-0.100000)"
fill="#000000" stroke="none">
<path d="M820 835 c0 -13 180 -15 1560 -15 1380 0 1560 2 1560 15 0 13 -180
15 -1560 15 -1380 0 -1560 -2 -1560 -15z"/>
<path d="M1875 705 c-5 -2 -26 -6 -46 -9 -51 -9 -123 -74 -145 -132 -10 -26
-18 -74 -18 -108 -1 -171 85 -266 242 -266 116 0 175 34 218 125 18 38 24 67
24 124 0 101 -16 147 -70 202 -36 38 -55 49 -98 58 -52 11 -87 13 -107 6z m81
-110 c95 -39 99 -256 5 -295 -38 -15 -96 -8 -124 17 -30 27 -47 76 -47 135 0
68 25 118 70 140 43 22 51 22 96 3z"/>
<path d="M3190 701 c-86 -28 -130 -77 -130 -146 0 -64 30 -102 108 -136 160
-72 154 -68 150 -92 -2 -16 -13 -24 -40 -31 -41 -10 -83 3 -128 40 l-27 23
-42 -35 c-22 -20 -41 -41 -41 -47 0 -15 52 -51 104 -72 29 -12 62 -16 121 -13
71 3 86 7 118 31 68 51 86 130 47 195 -20 33 -89 71 -181 101 -20 6 -45 21
-55 32 -18 20 -18 21 5 40 13 10 30 19 37 19 23 0 87 -29 109 -50 20 -19 21
-19 65 19 40 34 43 40 30 55 -40 50 -186 88 -250 67z"/>
<path d="M782 692 c-9 -7 -12 -63 -10 -248 l3 -239 168 -3 167 -2 0 50 0 50
-110 0 -110 0 -2 198 -3 197 -45 3 c-25 1 -51 -2 -58 -6z"/>
<path d="M2273 693 c-10 -3 -13 -63 -13 -249 l0 -244 60 0 59 0 3 145 3 146
81 -143 81 -143 66 -3 67 -3 0 244 c0 134 -2 246 -4 248 -2 2 -29 2 -60 1
l-56 -4 0 -146 0 -147 -58 105 c-105 189 -104 188 -136 194 -33 7 -76 7 -93
-1z"/>
<path d="M2826 693 c-3 -4 -6 -116 -6 -250 l0 -243 65 0 65 0 0 245 c0 135 -3
245 -7 246 -52 5 -112 6 -117 2z"/>
<path d="M1200 445 l0 -245 190 0 190 0 0 50 0 49 -127 3 -128 3 -3 48 -3 47
115 0 116 0 0 55 0 56 -89 -7 c-49 -4 -101 -4 -115 0 -25 6 -27 10 -24 49 l3
42 123 3 122 3 0 44 0 45 -185 0 -185 0 0 -245z"/>
<path d="M3676 682 c-8 -14 -176 -465 -176 -474 0 -5 28 -8 62 -6 l63 3 16 45
17 45 87 0 87 0 17 -45 16 -45 63 -3 c34 -2 62 1 62 5 0 4 -39 115 -86 246
l-87 237 -68 0 c-37 0 -70 -3 -73 -8z m128 -294 c-2 -3 -32 -7 -65 -7 -43 0
-59 4 -56 12 2 7 17 52 33 100 l29 88 31 -93 c17 -51 30 -96 28 -100z"/>
</g>
</svg>
